Coordinates
version=1
nRows=8
nColumns=40
inDegrees=yes

Units are S.I. units (second, meters, Newtons, ...)
If the header above contains a line with 'inDegrees', this indicates whether rotational values are in degrees (yes) or radians (no).

endheader
time	pelvis_tilt	pelvis_list	pelvis_rotation	pelvis_tx	pelvis_ty	pelvis_tz	hip_flexion_r	hip_adduction_r	hip_rotation_r	knee_angle_r	knee_angle_r_beta	ankle_angle_r	subtalar_angle_r	mtp_angle_r	hip_flexion_l	hip_adduction_l	hip_rotation_l	knee_angle_l	knee_angle_l_beta	ankle_angle_l	subtalar_angle_l	mtp_angle_l	lumbar_extension	lumbar_bending	lumbar_rotation	arm_flex_r	arm_add_r	arm_rot_r	elbow_flex_r	pro_sup_r	wrist_flex_r	wrist_dev_r	arm_flex_l	arm_add_l	arm_rot_l	elbow_flex_l	pro_sup_l	wrist_flex_l	wrist_dev_l
      0.39000000	     11.37584992	      2.13650252	     -4.32123132	     -0.80513944	      1.00592071	      0.21760874	      9.99485443	     -8.05912927	     -8.03186161	     61.53053363	      1.07391040	      4.79991508	      0.00000000	      0.00000000	    -15.02803686	      6.23090400	     -2.10867611	      2.07993887	      0.03630178	      1.99182396	      0.00000000	      0.00000000	    -22.10439981	     -2.43066396	     -1.73189369	     -1.98316182	     -6.30581030	      7.14242621	     29.92304251	     88.15852452	    -10.84148908	     -0.84422629	     -3.74274708	     -8.02023456	      2.95361986	     42.72480501	     89.05632288	    -10.49184311	      0.73365016
      0.40000000	     11.62203309	      1.57584740	     -3.96415263	     -0.79443460	      1.00605639	      0.21663524	     10.17334108	     -7.41978386	     -9.07622401	     59.13800403	      1.03215288	      5.08692783	      0.00000000	      0.00000000	    -16.26129084	      5.69674335	     -1.95428966	      1.63622339	      0.02855749	      2.47463541	      0.00000000	      0.00000000	    -22.39240543	     -1.56139288	     -2.25179997	     -2.10145334	     -6.25816090	      6.81298883	     30.06421490	     88.14290151	    -10.80763762	     -0.90842899	     -3.62397432	     -8.10790381	      2.91456312	     43.80835192	     89.05958966	    -10.20856991	      0.81894479
      0.41000000	     11.77404714	      1.07756016	     -3.68948177	     -0.78376309	      1.00581059	      0.21585073	     10.40271431	     -6.80908240	    -10.06963503	     56.50955679	      0.98627782	      5.40776813	      0.00000000	      0.00000000	    -17.35001916	      5.22915673	     -1.88587211	      1.26011522	      0.02199316	      2.96343431	      0.00000000	      0.00000000	    -22.56718912	     -0.77749068	     -2.67809562	     -2.22619536	     -6.19929798	      6.42646724	     30.18872513	     88.10890003	    -10.76456550	     -0.96162201	     -3.50427375	     -8.19261946	      2.85922766	     44.87329795	     89.07414302	     -9.83050141	      0.92218313
      0.42000000	     11.88206328	      0.61716734	     -3.44988060	     -0.77313754	      1.00529697	      0.21512890	     10.60754588	     -6.22056863	    -11.07021297	     53.65189137	      0.93640215	      5.65768517	      0.00000000	      0.00000000	    -18.33800967	      4.79980337	     -1.89381221	      0.97792300	      0.01706798	      3.53365066	      0.00000000	      0.00000000	    -22.69372243	     -0.03388041	     -3.06831524	     -2.34566449	     -6.14305345	      6.03160084	     30.30792517	     88.04721549	    -10.74028109	     -1.04628511	     -3.38103300	     -8.27154401	      2.82659326	     45.91211677	     89.08219813	     -9.44169110	      0.99850049
      0.43000000	     12.01145942	      0.15866590	     -3.23982212	     -0.76262796	      1.00466342	      0.21460145	     10.69679914	     -5.61162207	    -12.13390895	     50.52112551	      0.88175998	      5.82077354	      0.00000000	      0.00000000	    -19.31181357	      4.36558328	     -1.95399313	      0.76185614	      0.01329690	      4.10998275	      0.00000000	      0.00000000	    -22.87412921	      0.68360027	     -3.43771922	     -2.43131690	     -6.06644597	      5.61099796	     30.43024097	     88.00083377	    -10.72578973	     -1.14951607	     -3.25663015	     -8.38848367	      2.81129353	     46.97928016	     89.08759919	     -8.98919505	      1.07427193
      0.44000000	     11.81818646	     -0.06204622	     -3.25196910	     -0.75214087	      1.00325337	      0.21449047	     11.18729921	     -5.14958093	    -12.87277066	     47.35560486	      0.82651122	      6.21320760	      0.00000000	      0.00000000	    -19.87378440	      4.22135480	     -2.27589056	      0.63912335	      0.01115481	      4.59928098	      0.00000000	      0.00000000	    -22.66967321	      1.09608021	     -3.70913997	     -2.47857887	     -5.94170703	      5.22817242	     30.40518693	     87.86738911	    -10.77694420	     -1.20848908	     -3.20333671	     -8.55735710	      2.93504751	     48.02658698	     89.07939858	     -8.74579887	      1.04473560
      0.45000000	     12.21537359	     -0.64942020	     -2.93655126	     -0.74172862	      1.00291963	      0.21391154	     10.69945598	     -4.36416722	    -14.16013214	     43.59291532	      0.76083990	      5.90479756	      0.00000000	      0.00000000	    -21.09156003	      3.62250825	     -2.25950463	      0.52039800	      0.00908266	      5.25279817	      0.00000000	      0.00000000	    -23.20297977	      1.96830356	     -4.04212226	     -2.56572187	     -5.90298960	      4.78357707	     30.65051317	     87.91670060	    -10.77489504	     -1.40618395	     -2.99857802	     -8.63241293	      2.85391499	     49.05620881	     89.09599210	     -8.14268310	      1.14316999
      0.46000000	     12.12189880	     -0.98647271	     -2.96963804	     -0.73124209	      1.00151074	      0.21393160	     10.84736248	     -3.69040851	    -14.93725017	     39.91772350	      0.69669570	      5.98286359	      0.00000000	      0.00000000	    -21.74340132	      3.36271112	     -2.60308605	      0.45635549	      0.00796491	      5.85595384	      0.00000000	      0.00000000	    -23.14715319	      2.49432857	     -4.21096378	     -2.60823777	     -5.82341558	      4.43587518	     30.69144084	     87.86915989	    -10.83135459	     -1.51956581	     -2.90902772	     -8.72844706	      2.86413940	     49.97942446	     89.09758545	     -7.78047142	      1.17190268
